<svg width="115" height="115" viewBox="0 0 115 115" fill="none" xmlns="http://www.w3.org/2000/svg">
<g clip-path="url(#clip0_798_21907)">
<path d="M70.0246 0.113281C71.6697 0.653146 73.3007 1.06861 74.8833 1.64377C81.1818 3.93288 86.847 7.28648 91.8746 11.7142C96.3955 15.6957 100.153 20.3043 103.105 25.5554C105.594 29.983 107.424 34.6706 108.548 39.6324C109.356 43.1984 109.799 46.7979 109.892 50.4578C110.081 57.8961 108.779 65.051 105.904 71.9C105.46 72.9572 105.626 73.7555 106.219 74.5172C106.779 75.2362 107.153 76.042 107.569 76.8273C108.208 78.0309 108.952 79.1835 109.376 80.4964C109.739 81.6217 109.727 82.621 108.994 83.6712C107.905 85.2326 107.128 86.9953 106.053 88.5776C102.564 93.7127 98.2567 98.0343 93.1676 101.579C86.3821 106.305 78.8525 109.238 70.7671 110.81C66.8705 111.567 62.9353 111.983 58.9669 112.127C55.6293 112.247 52.321 111.961 49.0139 111.571C43.2623 110.892 37.6859 109.526 32.324 107.328C24.2308 104.01 17.2854 99.0953 11.6706 92.3593C9.7734 90.0832 8.114 87.6389 6.71132 85.0232C6.38472 84.4142 6.0414 83.8066 5.63518 83.2498C5.22034 82.6813 5.18233 82.085 5.29056 81.439C5.39632 80.8078 5.56359 80.1821 5.85204 79.6219C6.54488 78.2763 7.20887 76.9138 8.0109 75.6255C8.2967 75.1664 8.51768 74.6672 8.77412 74.1895C8.91982 73.918 8.79977 73.6852 8.69191 73.4439C6.99886 69.655 5.74969 65.7262 4.9818 61.6466C4.21105 57.5518 3.91222 53.4282 4.09881 49.2596C4.40439 42.4329 5.95351 35.91 8.76806 29.692C12.313 21.8605 17.4712 15.274 24.2034 9.93094C29.9368 5.38066 36.3385 2.14869 43.4272 0.293977C43.5338 0.266068 43.6324 0.207075 43.7663 0.137934C52.5226 0.113281 61.2473 0.113281 70.0246 0.113281ZM94.7433 45.5704C94.1473 41.542 92.9394 37.7026 91.108 34.069C88.1976 28.2946 84.1211 23.5083 78.8135 19.8001C73.0966 15.8059 66.7561 13.577 59.7848 13.1478C55.448 12.8809 51.1858 13.3187 47.0295 14.5639C39.4381 16.8382 33.1415 21.0986 28.2324 27.3034C22.1352 35.0099 19.3882 43.8211 19.8772 53.6482C20.0541 57.203 20.7221 60.6509 21.8513 64.0172C23.6279 69.3133 26.4185 74.0207 30.2519 78.071C36.0564 84.2038 43.1195 88.047 51.4768 89.4513C55.0072 90.0445 58.555 90.1004 62.0963 89.666C65.9619 89.1918 69.6818 88.1365 73.2013 86.4483C81.4401 82.4964 87.5128 76.3658 91.4647 68.1404C93.9834 62.8978 95.1507 57.3385 95.1929 51.5352C95.2072 49.5691 95.0395 47.614 94.7433 45.5704ZM14.5367 92.7727C19.4431 98.1816 25.3118 102.237 31.9882 105.146C37.358 107.485 42.9767 108.924 48.7779 109.654C52.7715 110.157 56.7763 110.45 60.8078 110.151C63.7354 109.935 66.6512 109.646 69.5418 109.12C77.0417 107.755 84.0754 105.186 90.4975 101.033C95.4982 97.7995 99.7967 93.8158 103.343 89.0221C104.739 87.1351 105.804 85.0459 107.074 83.0877C107.721 82.0909 107.643 81.2718 107.213 80.3296C107.159 80.2106 107.091 80.0978 107.031 79.9818C105.849 77.7286 104.616 75.5022 103.507 73.2112C102.874 71.9031 103.007 71.9639 101.583 72.2557C98.8919 72.8069 96.1903 73.3064 93.4899 73.8096C92.4055 74.0116 91.6364 74.5571 91.1043 75.5523C88.8849 79.7034 85.919 83.2385 82.1454 86.0617C75.0349 91.3813 66.9145 93.7241 58.1436 94.0196C54.1783 94.1532 50.2757 93.5841 46.4353 92.5875C41.3041 91.2558 36.5638 89.1103 32.3671 85.8377C28.7602 83.025 25.868 79.5997 23.7192 75.5627C23.2014 74.5898 22.4663 74.0178 21.3988 73.8181C20.2607 73.6051 19.128 73.3637 17.9912 73.1435C16.2307 72.8025 14.4652 72.4866 12.7094 72.1232C12.0477 71.9863 11.8616 72.0231 11.5607 72.6603C10.7215 74.4374 9.78756 76.1656 8.88109 77.9083C8.33848 78.9515 7.69098 79.9435 7.3176 81.0737C7.13154 81.6369 7.07603 82.1377 7.50173 82.6393C7.76395 82.9483 7.94009 83.3344 8.13295 83.6975C9.87103 86.9699 11.9764 89.9829 14.5367 92.7727ZM13.1185 34.5084C12.5958 36.0825 12.0856 37.6579 11.6862 39.272C11.2819 40.9057 10.9443 42.5486 10.7009 44.2111C10.531 45.3719 10.3184 46.5361 10.2776 47.7041C10.2076 49.7042 10.3038 51.7099 10.2418 53.7105C10.1928 55.2928 10.4303 56.8484 10.6524 58.3901C10.9009 60.1154 11.1975 61.8439 11.6696 63.5404C12.0742 64.9949 12.5127 66.4361 12.9431 67.8817C13.1804 68.6786 13.6256 68.9323 14.3905 68.9243C15.0403 68.9174 15.0871 68.8903 14.8654 68.2826C13.0186 63.2194 11.9479 58.0169 11.8437 52.6068C11.7415 47.3018 12.396 42.1188 14.0036 37.0645C16.596 28.9141 21.0406 21.9485 27.3972 16.209C30.982 12.9724 34.9816 10.3903 39.3867 8.41111C44.7644 5.99495 50.4083 4.74926 56.2782 4.49916C59.9189 4.34404 63.5327 4.69171 67.0925 5.44189C74.3068 6.96219 80.7895 10.0732 86.5007 14.7244C92.468 19.5841 96.969 25.5771 100.008 32.6583C102.228 37.833 103.477 43.2395 103.766 48.8542C103.892 51.3177 103.833 53.7872 103.598 56.2528C103.193 60.4899 102.191 64.5768 100.685 68.549C100.576 68.8366 100.414 69.1168 100.434 69.4682C100.95 69.5557 101.419 69.3719 101.897 69.3388C102.092 69.3253 102.211 69.1672 102.279 68.9719C102.549 68.1973 102.849 67.4329 103.1 66.6524C103.672 64.8738 104.098 63.058 104.493 61.2319C104.897 59.3666 105.148 57.4775 105.317 55.5867C105.47 53.8771 105.388 52.1471 105.423 50.4264C105.465 48.3838 105.288 46.3529 104.985 44.3408C104.647 42.0929 104.189 39.8684 103.551 37.6752C102.966 35.664 102.295 33.6848 101.468 31.7716C100.421 29.3464 99.2107 26.9982 97.7411 24.7837C96.6954 23.2078 95.5979 21.6841 94.3913 20.227C92.4312 17.8599 90.2786 15.6909 87.9383 13.7058C85.983 12.0472 83.8654 10.6136 81.6612 9.31089C79.181 7.84499 76.5694 6.64822 73.8643 5.66286C71.5805 4.83098 69.2377 4.19556 66.8516 3.73432C63.8554 3.15516 60.8349 2.86093 57.7758 2.92165C55.7769 2.96134 53.7809 2.96316 51.7957 3.24832C49.3905 3.59382 47.0143 4.06156 44.6788 4.74414C42.3313 5.43021 40.0303 6.23812 37.8296 7.30448C35.5792 8.39489 33.4087 9.61496 31.3293 11.0262C29.294 12.4076 27.3835 13.9226 25.6074 15.6054C23.6129 17.4953 21.733 19.4966 20.0662 21.6931C18.5842 23.6461 17.2211 25.6786 16.101 27.853C15.0012 29.9878 13.8945 32.1295 13.1185 34.5084ZM22.8173 23.0947C21.6749 24.5963 20.6002 26.137 19.6323 27.7648C18.7597 29.2322 18.0169 30.7611 17.2795 32.2876C16.1909 34.5407 15.3905 36.9217 14.7703 39.3446C13.8796 42.8244 13.2761 46.3498 13.2601 49.9665C13.2461 53.1285 13.2864 56.2791 13.8589 59.4006C14.4187 62.4531 15.1642 65.4528 16.3762 68.3213C16.5144 68.6485 16.5037 69.0764 17.0501 69.0606C17.4253 69.0498 17.8099 69.2601 18.1762 69.0228C18.1922 68.701 18.0564 68.4499 17.9522 68.193C15.9348 63.2175 14.8833 58.0376 14.715 52.6796C14.6107 49.3595 14.8923 46.0602 15.5276 42.8022C16.7213 36.6797 19.0774 31.0329 22.6645 25.9233C27.2835 19.3438 33.2306 14.3529 40.585 11.0583C45.5825 8.81946 50.8249 7.64455 56.2818 7.4097C59.2819 7.28058 62.2682 7.49553 65.2238 8.02366C70.0547 8.88687 74.6196 10.5088 78.873 12.9674C86.7814 17.5387 92.7192 23.9436 96.6849 32.175C99.2176 37.4319 100.63 42.9865 100.958 48.7991C101.173 52.6005 100.957 56.3925 100.198 60.1378C99.5575 63.3013 98.6105 66.369 97.3165 69.3284C97.2401 69.5032 97.0773 69.6761 97.1923 69.8972C98.5951 70.0435 98.8873 69.8556 99.2606 68.5766C99.292 68.4691 99.3304 68.3629 99.3743 68.2599C100.109 66.5379 100.635 64.7487 101.107 62.9407C101.755 60.4576 102.205 57.928 102.379 55.3801C102.582 52.4182 102.622 49.4382 102.274 46.4724C101.963 43.819 101.516 41.1953 100.757 38.6263C100.048 36.224 99.2243 33.8718 98.1362 31.6094C97.2962 29.8629 96.3944 28.1605 95.3531 26.522C93.9941 24.3836 92.4575 22.3934 90.7386 20.5388C88.5621 18.1905 86.2768 15.9583 83.6403 14.1226C80.6885 12.0674 77.5693 10.328 74.2039 9.01717C71.1781 7.83858 68.0872 6.94643 64.8778 6.46981C63.6043 6.28069 62.3266 6.0126 61.0474 5.99174C58.5447 5.95093 56.0345 5.81498 53.5356 6.10423C51.978 6.28453 50.4259 6.4917 48.8863 6.81024C47.6776 7.06033 46.4899 7.37982 45.3021 7.70322C43.7341 8.13016 42.2146 8.70651 40.7136 9.32133C39.265 9.91471 37.8792 10.6467 36.4966 11.3826C34.7597 12.307 33.1554 13.4337 31.551 14.5613C30.356 15.4011 29.2632 16.3627 28.1869 17.3496C26.2674 19.1096 24.4775 20.9859 22.8173 23.0947Z" fill="white"/>
<path d="M27.0269 58.1446C27.2677 55.734 27.5057 53.3741 27.7447 51.0144C27.9177 49.3052 28.0933 47.5962 28.2656 45.887C28.4623 43.9364 28.6479 41.9847 28.8564 40.0354C28.9365 39.2872 29.3366 38.9514 30.095 38.9496C32.3785 38.9442 34.662 38.9428 36.9454 38.9465C37.6919 38.9477 37.9897 39.1696 38.206 39.8894C39.9323 45.6358 41.6541 51.3836 43.38 57.1302C43.4524 57.371 43.4688 57.643 43.6993 57.851C43.9716 57.6308 44.0045 57.3217 44.087 57.05C45.8134 51.3622 47.533 45.6723 49.2552 39.9832C49.5011 39.1707 49.787 38.9522 50.6257 38.9508C52.853 38.947 55.0804 38.9469 57.3077 38.9501C58.136 38.9513 58.5511 39.3165 58.6352 40.1505C58.9146 42.9203 59.1721 45.6922 59.4563 48.4615C59.725 51.081 60.0256 53.6972 60.2959 56.3166C60.5488 58.7686 60.7758 61.2232 61.023 63.6758C61.1803 65.2363 61.3318 66.7979 61.5273 68.3537C61.656 69.3776 61.3687 69.7637 60.3531 69.7648C58.5376 69.7667 56.722 69.7658 54.9065 69.7638C54.0072 69.7628 53.7349 69.5328 53.6343 68.6434C53.2564 65.3027 52.8909 61.9605 52.5127 58.6198C52.3467 57.1541 52.162 55.6906 51.9831 54.2264C51.9701 54.1196 51.9821 53.9957 51.8484 53.9234C51.6295 53.9368 51.6298 54.1284 51.586 54.2797C50.4687 58.1396 49.3523 61.9998 48.2366 65.8602C47.9616 66.8117 47.6918 67.7646 47.4156 68.7157C47.1934 69.4808 46.8241 69.7629 46.0454 69.7638C44.4919 69.7655 42.9384 69.7661 41.3849 69.7632C40.6234 69.7618 40.3408 69.5751 40.1231 68.8334C39.0068 65.0308 37.9033 61.2244 36.797 57.4188C36.4891 56.3598 36.1892 55.2985 35.8784 54.2403C35.8382 54.1035 35.8206 53.943 35.6212 53.8247C35.3902 54.4272 35.3763 55.0536 35.3051 55.6621C35.0057 58.2222 34.7257 60.7845 34.4399 63.3462C34.2391 65.1468 34.0432 66.948 33.8391 68.7482C33.7547 69.4924 33.4639 69.7571 32.6983 69.7601C30.7892 69.7676 28.88 69.767 26.9709 69.7582C26.2304 69.7548 25.8561 69.3617 25.9314 68.617C26.2002 65.9599 26.493 63.3052 26.7747 60.6493C26.8614 59.8317 26.9414 59.0134 27.0269 58.1446Z" fill="white"/>
<path d="M84.0417 66.8822C80.3162 67.1819 77.3273 65.8025 74.9494 63.0704C72.6344 60.4104 71.567 57.2562 71.4925 53.7486C71.4129 49.9986 72.4446 46.6142 74.8724 43.7198C78.5539 39.331 84.7118 38.4324 89.2891 41.9833C89.9641 42.5069 90.0639 42.8804 89.6382 43.6102C88.8843 44.9029 88.1172 46.1879 87.3435 47.4688C86.9906 48.053 86.7303 48.1121 86.2233 47.6971C83.5288 45.4919 79.9633 46.3446 78.4056 49.289C76.8691 52.193 76.9067 55.136 78.7179 57.913C80.4156 60.5159 83.57 60.9883 86.0682 59.1336C86.8777 58.5326 86.989 58.5495 87.5215 59.4304C88.2473 60.631 88.9677 61.8349 89.6775 63.0449C90.1616 63.8703 90.0756 64.2036 89.2842 64.7838C87.731 65.9225 86.0202 66.6686 84.0417 66.8822Z" fill="white"/>
<path d="M64.4361 57.9501C64.4353 54.9763 64.4345 52.0586 64.4341 49.1408C64.4341 48.8796 64.4333 48.6216 64.5148 48.3644C64.6752 47.8577 64.9903 47.5794 65.5371 47.5812C66.6218 47.5848 67.7066 47.5806 68.7914 47.5818C69.9321 47.5831 70.409 48.0717 70.4087 49.2324C70.4082 51.458 70.4073 53.6837 70.4087 55.9094C70.4105 58.7896 70.4145 61.6699 70.4167 64.5501C70.4169 64.7558 70.42 64.9622 70.4053 65.1671C70.3368 66.1244 69.9407 66.4989 68.9752 66.5067C67.984 66.5148 66.9927 66.5122 66.0014 66.5112C64.7492 66.5099 64.4331 66.1965 64.4336 64.9639C64.4344 62.6447 64.4353 60.3255 64.4361 57.9501Z" fill="white"/>
<path d="M67.1861 34.7912C70.4277 34.7812 72.7787 36.9727 73.0056 40.1658C73.2043 42.9622 70.5974 45.658 67.7808 45.7753C64.8745 45.8964 62.6295 43.7947 62.1291 41.5284C61.4378 38.3974 63.4714 35.3604 66.6396 34.8864C66.8055 34.8616 66.9697 34.8247 67.1861 34.7912Z" fill="white"/>
<path d="M77.4908 68.0264C81.1399 68.0268 84.7327 68.0269 88.3256 68.0276C89.0116 68.0277 89.2692 68.4294 89.0123 69.0756C88.9358 69.2679 88.797 69.3186 88.6176 69.3196C88.3182 69.3214 88.0188 69.3193 87.7194 69.3193C79.8413 69.3194 71.9632 69.3169 64.0852 69.3261C63.609 69.3266 63.3092 69.2802 63.3145 68.6772C63.3192 68.139 63.5261 68.0175 64.0176 68.0191C68.3589 68.0325 72.7003 68.0264 77.0417 68.0261C77.1727 68.0261 77.3037 68.0263 77.4908 68.0264Z" fill="white"/>
<path d="M24.8978 94.6356C24.4909 95.2449 24.1003 95.8164 23.7264 96.3986C23.5282 96.7073 23.3355 96.7801 22.9957 96.5645C22.0517 95.9656 22.0332 95.973 22.6554 95.0377C24.3855 92.4369 26.1291 89.8452 27.8543 87.2411C28.0879 86.8885 28.293 86.8589 28.6201 87.1064C28.9923 87.388 29.383 87.6506 29.7885 87.8814C30.1588 88.0923 30.2061 88.3174 30.0259 88.7017C29.2641 90.3268 28.5308 91.9652 27.7889 93.5995C27.6737 93.8534 27.5685 94.1119 27.4127 94.4754C27.749 94.3352 27.8938 94.1253 28.0565 93.9478C29.2952 92.5969 30.5375 91.2492 31.7602 89.8838C32.035 89.5769 32.2575 89.4958 32.6061 89.7642C33.0054 90.0716 33.4346 90.3417 33.8611 90.6116C34.1477 90.7931 34.1647 90.9712 33.9759 91.2522C32.1297 94.0003 30.2918 96.7539 28.4593 99.5111C28.2242 99.8649 28.0113 99.9156 27.6411 99.6651C26.6631 99.0033 26.6523 99.0207 27.317 98.0234C28.2178 96.6718 29.1176 95.3194 29.9606 93.9173C29.4468 94.4666 28.9299 95.0131 28.4201 95.5661C27.6469 96.4049 26.8687 97.2394 26.1143 98.0948C25.8756 98.3655 25.6936 98.3702 25.4073 98.1733C24.1497 97.3084 24.2708 97.6856 24.8646 96.3503C25.4875 94.9492 26.1125 93.5491 26.7352 92.1479C26.7488 92.1174 26.7449 92.0791 26.6802 91.9971C26.0938 92.8655 25.5074 93.7339 24.8978 94.6356Z" fill="white"/>
<path d="M77.1752 92.6189C76.8369 91.9139 76.8369 91.9139 77.4879 91.5844C78.8618 90.8888 78.8555 90.8944 79.8731 92.0588C80.8259 93.1489 81.794 94.2255 82.8216 95.2618C82.0822 93.777 81.3581 92.2843 80.5946 90.8121C80.3491 90.3387 80.4057 90.1079 80.9135 89.8873C81.8188 89.4939 81.8068 89.4618 82.2416 90.3361C83.6326 93.1327 85.0137 95.9343 86.4215 98.7224C86.6437 99.1625 86.5861 99.3835 86.1335 99.5767C84.7138 100.183 85.2254 100.34 84.1849 99.2014C82.9734 97.8762 81.7936 96.5219 80.6036 95.1772C80.5181 95.0806 80.4617 94.9583 80.3302 94.8976C80.4727 95.5961 80.8342 96.175 81.1286 96.7819C81.7243 98.0097 82.3238 99.2361 82.952 100.447C83.162 100.852 83.1244 101.064 82.6916 101.266C81.5386 101.807 81.7698 101.843 81.2462 100.794C79.8932 98.0828 78.5451 95.3691 77.1752 92.6189Z" fill="white"/>
<path d="M73.2601 102.629C73.387 103.146 73.5069 103.616 73.6184 104.088C73.6478 104.213 73.7135 104.405 73.6571 104.462C73.2644 104.86 72.6969 104.8 72.2127 104.966C71.9126 105.069 71.8227 104.825 71.7144 104.634C70.9669 103.317 70.222 101.998 69.4777 100.68C69.1212 100.048 68.7679 99.4146 68.3057 98.8208C68.5877 99.9468 68.8677 101.073 69.1523 102.199C69.3902 103.139 69.6268 104.08 69.8773 105.018C69.9811 105.406 69.8718 105.606 69.4622 105.685C68.2318 105.923 68.4352 106.149 68.1182 104.89C67.361 101.884 66.6046 98.8779 65.8283 95.8768C65.7188 95.4538 65.7916 95.286 66.2385 95.1793C67.889 94.7851 67.8848 94.7683 68.7181 96.2607C69.2283 97.1745 69.7369 98.0892 70.2514 99.0005C70.3667 99.2048 70.5038 99.3967 70.6724 99.5745C70.5609 98.5448 70.2447 97.5713 70.0115 96.5796C69.8747 95.9978 69.7391 95.4149 69.573 94.8411C69.4692 94.4826 69.5993 94.3433 69.9328 94.2417C71.0373 93.9052 71.0632 93.9211 71.341 95.0336C71.97 97.5522 72.6127 100.067 73.2601 102.629Z" fill="white"/>
<path d="M45.7554 103.693C45.6044 104.544 45.2875 105.313 45.2808 106.189C44.7182 106.14 44.2266 105.97 43.7309 105.83C43.4632 105.755 43.513 105.511 43.5314 105.31C43.6035 104.524 43.8557 103.776 44.0294 103.012C44.1006 102.698 44.1388 102.387 44.1362 102.068C44.1333 101.71 43.9624 101.472 43.6372 101.327C43.0819 101.08 42.8637 101.183 42.7238 101.77C42.4853 102.77 42.2239 103.765 42.0128 104.77C41.9059 105.28 41.6787 105.399 41.1909 105.254C39.859 104.856 40.0029 105.168 40.3139 103.862C41.0239 100.882 41.7848 97.9136 42.4967 94.9335C42.6188 94.4225 42.8167 94.3022 43.3091 94.4545C43.9865 94.664 44.687 94.7969 45.3722 94.9827C46.9262 95.404 47.512 96.3696 47.1542 97.9333C47.0211 98.5151 46.8987 99.1015 46.6498 99.6526C46.4245 100.152 46.0135 100.465 45.5549 100.773C46.1609 101.706 46.0559 102.671 45.7554 103.693ZM45.3373 97.5219C45.3281 97.3555 45.3557 97.1762 45.3028 97.0252C45.1383 96.5552 44.6989 96.5313 44.2983 96.4544C44.0747 96.4115 43.9995 96.5548 43.9568 96.7304C43.7679 97.5066 43.581 98.2834 43.3947 99.0603C43.3305 99.3281 43.4485 99.4744 43.702 99.5614C44.3206 99.7738 44.778 99.5836 44.9849 98.9636C45.1314 98.5245 45.2179 98.0655 45.3373 97.5219Z" fill="white"/>
<path d="M47.3603 104.957C47.307 103.105 47.7049 101.345 47.8711 99.564C47.9264 98.9718 47.9915 98.3748 48.1243 97.7966C48.4746 96.2713 49.543 95.6296 51.2195 95.8924C52.589 96.107 53.4229 97.1169 53.2879 98.5541C53.0892 100.67 52.8456 102.783 52.5577 104.888C52.3799 106.188 51.4353 106.976 50.1925 107.009C48.6569 107.05 47.7246 106.39 47.3603 104.957ZM50.7036 97.5232C50.1678 97.5352 49.9468 97.8649 49.8865 98.3451C49.7376 99.5314 49.593 100.718 49.448 101.905C49.3438 102.758 49.1989 103.606 49.1946 104.469C49.1924 104.916 49.3622 105.236 49.8457 105.298C50.3006 105.357 50.653 105.092 50.7244 104.559C50.9975 102.524 51.2594 100.487 51.4926 98.4476C51.5465 97.9762 51.3119 97.6129 50.7036 97.5232Z" fill="white"/>
<path d="M60.9461 100.401C60.9549 99.1102 60.9768 97.8753 60.9651 96.6408C60.9609 96.1957 61.1287 95.9926 61.5701 95.9533C62.0343 95.912 62.5014 95.8555 62.9544 95.7504C63.4129 95.644 63.6245 95.7791 63.7605 96.2376C64.2014 97.7247 64.6856 99.199 65.1523 100.678C65.6695 102.318 66.1884 103.958 66.7014 105.599C66.8973 106.225 66.8528 106.285 66.19 106.38C65.0732 106.54 65.0732 106.54 64.7244 105.433C64.4696 104.624 64.4726 104.645 63.6297 104.768C62.4376 104.943 62.587 104.826 62.5624 105.988C62.5559 106.294 62.6937 106.705 62.3687 106.868C61.9748 107.065 61.5037 107.098 61.0552 107.082C60.8343 107.074 60.8446 106.85 60.8463 106.684C60.8612 105.244 60.8784 103.803 60.8999 102.363C60.9094 101.728 60.9303 101.092 60.9461 100.401ZM63.1721 103.186C63.4242 103.144 63.6925 103.156 63.9483 102.945C63.5271 101.536 63.1035 100.12 62.68 98.7035C62.5763 100.088 62.5867 101.45 62.57 102.812C62.5649 103.225 62.7407 103.298 63.1721 103.186Z" fill="white"/>
<path d="M55.4794 107.008C55.0694 104.149 54.6721 101.338 54.2773 98.5258C54.1943 97.9342 54.1287 97.34 54.0383 96.7496C53.9948 96.4652 54.0756 96.3136 54.3775 96.3175C54.3962 96.3177 54.4149 96.3154 54.4336 96.3159C56.0718 96.3552 55.786 96.0669 56.0021 97.55C56.3171 99.7114 56.5768 101.881 56.8625 104.047C56.8761 104.15 56.8369 104.276 57.0087 104.369C57.3122 102.515 57.6122 100.679 57.9134 98.8438C58.0253 98.162 58.1534 97.4826 58.2482 96.7986C58.2924 96.4793 58.4323 96.355 58.7548 96.3371C60.0113 96.2671 60.0195 96.26 59.7887 97.6645C59.3041 100.613 58.8125 103.56 58.3167 106.507C58.184 107.295 58.1722 107.294 57.3604 107.293C56.9113 107.292 56.4621 107.292 56.013 107.286C55.8091 107.284 55.5896 107.305 55.4794 107.008Z" fill="white"/>
<path d="M85.8653 91.1302C86.7142 92.3891 87.5384 93.6158 88.3704 94.8371C88.5062 95.0363 88.6553 95.2367 88.836 95.3929C89.1514 95.6654 89.4952 95.6184 89.8105 95.3754C90.1145 95.1411 90.1996 94.8524 90.0223 94.4864C89.8 94.0277 89.4896 93.6288 89.2 93.2161C89.0262 92.9686 89.0454 92.8083 89.2946 92.6109C90.3629 91.7645 90.3587 91.7569 91.1239 92.8841C91.208 93.0078 91.2875 93.1348 91.3646 93.263C92.4439 95.0585 91.6741 96.8968 89.6291 97.3609C88.5677 97.6018 87.7648 97.1267 87.1459 96.3117C86.7053 95.7315 86.3124 95.1147 85.9052 94.5096C85.1531 93.3922 84.3866 92.2837 83.663 91.148C83.0909 90.2499 82.9093 89.2686 83.581 88.3602C84.2465 87.4603 85.1519 86.9069 86.3411 87.1065C87.1555 87.2431 87.6929 87.7937 88.1302 88.4474C88.8629 89.5428 88.8465 89.2798 87.8692 89.99C87.4377 90.3035 87.1636 90.2973 86.9055 89.8076C86.7678 89.5462 86.5826 89.2994 86.3766 89.087C86.077 88.7779 85.7198 88.7521 85.3644 89.0131C85.0283 89.2599 84.9425 89.5909 85.1377 89.9516C85.3506 90.3452 85.6061 90.7157 85.8653 91.1302Z" fill="white"/>
<path d="M40.773 97.5616C40.2136 97.6647 39.7969 97.3408 39.3404 97.1576C39.133 97.0743 39.1994 96.8856 39.2585 96.7202C39.3779 96.3862 39.5183 96.0568 39.6028 95.7138C39.7138 95.2631 39.5985 94.8894 39.1044 94.7357C38.6267 94.5871 38.2892 94.7793 38.1126 95.2213C37.6133 96.4713 37.1287 97.7273 36.644 98.9832C36.3952 99.6281 36.1388 100.271 35.9224 100.927C35.7311 101.507 35.8949 101.849 36.3773 102.015C36.829 102.171 37.1645 102.008 37.3962 101.489C37.5637 101.113 37.7194 100.731 37.8481 100.341C37.965 99.9865 38.1481 99.9377 38.4822 100.07C39.9371 100.647 39.6804 100.391 39.2253 101.664C39.175 101.805 39.116 101.943 39.0551 102.079C38.2056 103.984 36.3555 104.412 34.7464 103.063C33.9219 102.372 33.808 101.449 34.1214 100.504C34.5686 99.1569 35.1048 97.8388 35.614 96.5124C35.8953 95.7795 36.1669 95.04 36.5002 94.3304C37.0229 93.2178 37.952 92.7698 39.1761 92.9753C40.392 93.1794 41.3181 94.065 41.4111 95.1677C41.4828 96.0176 41.1178 96.772 40.773 97.5616Z" fill="white"/>
<path d="M77.6311 101.488C76.5791 98.7856 75.5534 96.1202 74.4985 93.4665C74.3041 92.9774 74.3721 92.7676 74.8882 92.5646C76.1699 92.0605 75.9363 92.0823 76.3885 93.228C77.5193 96.0928 78.6228 98.9683 79.758 101.831C79.918 102.235 79.8758 102.417 79.4486 102.578C78.2465 103.03 78.2531 103.048 77.7646 101.842C77.7226 101.739 77.6862 101.633 77.6311 101.488Z" fill="white"/>
<path d="M33.987 93.0616C34.2557 92.5228 34.5198 92.028 34.7551 91.5199C34.9098 91.186 35.1054 91.1431 35.4197 91.3078C36.8752 92.0706 36.697 91.736 36.0314 93.0833C34.6999 95.7788 33.3294 98.4551 32.0012 101.152C31.7715 101.619 31.5606 101.685 31.1089 101.443C30.0768 100.891 30.0475 100.903 30.5685 99.8556C31.6915 97.5983 32.8351 95.3513 33.987 93.0616Z" fill="white"/>
<path d="M93.1094 92.7226C93.2262 92.6039 93.32 92.5126 93.4212 92.4304C94.3968 91.6366 94.6089 91.6788 95.2776 92.7964C95.2872 92.8124 95.2984 92.8275 95.3091 92.8428C95.4524 93.0478 95.3666 93.2167 95.185 93.3114C94.7741 93.5256 94.5105 94.2527 94.0336 93.9954C93.6231 93.7739 93.1772 93.3396 93.1094 92.7226Z" fill="white"/>
</g>
<defs>
<clipPath id="clip0_798_21907">
<rect width="115" height="115" fill="white" transform="translate(0 0.000976562)"/>
</clipPath>
</defs>
</svg>
