<svg width="369" height="379" viewBox="0 0 369 379" fill="none" xmlns="http://www.w3.org/2000/svg">
<path d="M224.691 0.370117C229.969 2.14932 235.203 3.51855 240.281 5.41409C260.491 12.9582 278.669 24.0105 294.801 38.6028C309.307 51.7242 321.363 66.9128 330.836 84.2185C338.823 98.8102 344.695 114.259 348.302 130.611C350.894 142.364 352.314 154.226 352.612 166.288C353.219 190.802 349.043 214.382 339.816 236.954C338.392 240.438 338.924 243.069 340.828 245.579C342.626 247.949 343.825 250.605 345.161 253.193C347.208 257.159 349.596 260.958 350.956 265.285C352.123 268.994 352.084 272.287 349.732 275.748C346.236 280.894 343.745 286.703 340.295 291.918C329.099 308.841 315.279 323.084 298.95 334.765C277.177 350.341 253.017 360.006 227.073 365.187C214.57 367.684 201.943 369.055 189.21 369.527C178.5 369.925 167.885 368.983 157.273 367.696C138.819 365.458 120.926 360.956 103.721 353.712C77.7522 342.778 55.4665 326.58 37.4504 304.381C31.3628 296.88 26.0383 288.824 21.5375 280.204C20.4896 278.197 19.388 276.194 18.0845 274.359C16.7534 272.486 16.6315 270.52 16.9787 268.391C17.3181 266.311 17.8548 264.249 18.7804 262.403C21.0035 257.968 23.134 253.478 25.7075 249.232C26.6245 247.719 27.3336 246.074 28.1564 244.499C28.6239 243.605 28.2387 242.838 27.8927 242.042C22.4602 229.556 18.452 216.607 15.988 203.163C13.5149 189.668 12.5561 176.078 13.1548 162.339C14.1353 139.841 19.106 118.344 28.137 97.8514C39.5116 72.0414 56.0628 50.3346 77.6645 32.7257C96.061 17.7296 116.602 7.07813 139.348 0.965629C139.69 0.87365 140.006 0.679228 140.436 0.451366C168.532 0.370117 196.527 0.370117 224.691 0.370117ZM304.005 150.181C302.093 136.905 298.217 124.252 292.341 112.276C283.002 93.246 269.922 77.4721 252.891 65.251C234.548 52.0875 214.203 44.7418 191.834 43.3275C177.919 42.4476 164.243 43.8906 150.906 47.9944C126.548 55.4896 106.344 69.5304 90.5921 89.9793C71.0282 115.377 62.2139 144.416 63.7829 176.803C64.3505 188.518 66.4938 199.881 70.1171 210.975C75.8178 228.429 84.7719 243.943 97.0722 257.292C115.697 277.503 138.36 290.169 165.176 294.797C176.504 296.752 187.888 296.936 199.251 295.505C211.655 293.942 223.591 290.464 234.884 284.9C261.32 271.876 280.805 251.672 293.485 224.564C301.567 207.286 305.312 188.965 305.448 169.839C305.494 163.359 304.956 156.916 304.005 150.181ZM46.6468 305.743C62.3899 323.569 81.2208 336.935 102.643 346.52C119.874 354.229 137.902 358.972 156.516 361.38C169.331 363.037 182.181 364 195.117 363.017C204.51 362.304 213.866 361.352 223.142 359.619C247.206 355.121 269.775 346.653 290.382 332.967C306.428 322.31 320.22 309.181 331.6 293.383C336.079 287.164 339.495 280.278 343.571 273.825C345.646 270.54 345.397 267.84 344.018 264.735C343.843 264.343 343.627 263.971 343.432 263.589C339.64 256.163 335.684 248.826 332.125 241.275C330.093 236.965 330.521 237.165 325.951 238.126C317.317 239.943 308.648 241.589 299.984 243.247C296.504 243.913 294.036 245.711 292.329 248.991C285.208 262.671 275.691 274.322 263.582 283.626C240.767 301.158 214.711 308.879 186.568 309.853C173.845 310.293 161.322 308.417 149 305.133C132.535 300.744 117.325 293.673 103.859 282.888C92.2857 273.618 83.0054 262.33 76.1108 249.025C74.4492 245.819 72.0903 243.934 68.665 243.275C65.0133 242.574 61.3788 241.778 57.7313 241.052C52.0825 239.928 46.4172 238.887 40.7834 237.69C38.6605 237.239 38.0632 237.36 37.0977 239.46C34.405 245.317 31.4082 251.012 28.4997 256.755C26.7586 260.193 24.681 263.463 23.4829 267.187C22.8859 269.043 22.7078 270.694 24.0737 272.347C24.9151 273.366 25.4803 274.638 26.0991 275.835C31.6761 286.619 38.4315 296.549 46.6468 305.743ZM42.0963 113.724C40.419 118.912 38.782 124.104 37.5003 129.424C36.2031 134.808 35.12 140.222 34.339 145.701C33.7937 149.527 33.1116 153.364 32.9805 157.213C32.7561 163.804 33.0646 170.415 32.8658 177.008C32.7086 182.223 33.4706 187.349 34.1832 192.43C34.9806 198.116 35.9324 203.813 37.447 209.404C38.7455 214.197 40.1524 218.947 41.5335 223.711C42.2948 226.337 43.7233 227.174 46.1777 227.147C48.2627 227.125 48.4129 227.035 47.7016 225.032C41.7757 208.346 38.3401 191.2 38.0057 173.371C37.6778 155.887 39.778 138.806 44.9362 122.149C53.2544 95.2877 67.5158 72.3312 87.9123 53.4161C99.4146 42.7492 112.248 34.2396 126.383 27.7169C143.638 19.7541 161.748 15.6487 180.583 14.8244C192.265 14.3132 203.86 15.459 215.282 17.9314C238.431 22.9417 259.232 33.1947 277.558 48.5234C296.705 64.5392 311.147 84.2899 320.897 107.627C328.023 124.681 332.03 142.499 332.956 161.003C333.362 169.122 333.172 177.261 332.416 185.387C331.117 199.35 327.904 212.819 323.071 225.91C322.721 226.858 322.202 227.782 322.267 228.94C323.922 229.228 325.424 228.622 326.959 228.513C327.585 228.469 327.967 227.948 328.185 227.304C329.05 224.751 330.014 222.232 330.82 219.66C332.655 213.798 334.021 207.814 335.29 201.796C336.586 195.648 337.391 189.423 337.933 183.191C338.423 177.557 338.162 171.856 338.275 166.185C338.408 159.453 337.841 152.76 336.869 146.129C335.782 138.72 334.312 131.389 332.265 124.161C330.388 117.533 328.236 111.01 325.584 104.705C322.223 96.7123 318.34 88.9736 313.624 81.6752C310.269 76.4815 306.747 71.4599 302.876 66.658C296.587 58.8568 289.679 51.7084 282.17 45.1662C275.896 39.7 269.101 34.9756 262.029 30.6822C254.071 25.8511 245.691 21.907 237.011 18.6596C229.683 15.918 222.166 13.8239 214.509 12.3038C204.896 10.3951 195.204 9.4254 185.388 9.62554C178.974 9.75632 172.569 9.76233 166.2 10.7021C158.482 11.8408 150.858 13.3823 143.364 15.6318C135.831 17.8929 128.448 20.5555 121.387 24.0698C114.166 27.6634 107.201 31.6843 100.529 36.3354C93.9983 40.888 87.8681 45.8807 82.1694 51.4266C75.7694 57.6551 69.7376 64.2508 64.3894 71.4898C59.6341 77.9262 55.2602 84.6246 51.666 91.7906C48.1373 98.8262 44.5861 105.884 42.0963 113.724ZM73.2167 76.109C69.551 81.0575 66.1027 86.1352 62.9969 91.4998C60.1972 96.3358 57.8138 101.375 55.4475 106.405C51.9547 113.831 49.3865 121.678 47.3965 129.663C44.5383 141.131 42.602 152.75 42.5506 164.669C42.5057 175.09 42.6351 185.473 44.4719 195.76C46.2682 205.821 48.6603 215.706 52.5492 225.16C52.9928 226.238 52.9584 227.648 54.7115 227.597C55.9154 227.561 57.1494 228.254 58.3247 227.472C58.3762 226.412 57.9403 225.584 57.6061 224.737C51.133 208.34 47.7589 191.269 47.219 173.611C46.8844 162.668 47.788 151.795 49.8263 141.058C53.6566 120.88 61.2165 102.27 72.7264 85.431C87.5475 63.7472 106.63 47.299 130.228 36.4409C146.263 29.0627 163.085 25.1905 180.594 24.4166C190.221 23.9911 199.803 24.6994 209.286 26.44C224.787 29.2848 239.435 34.6301 253.082 42.7327C278.458 57.7981 297.511 78.9064 310.235 106.034C318.362 123.359 322.893 141.665 323.948 160.822C324.637 173.35 323.944 185.847 321.509 198.19C319.453 208.616 316.414 218.726 312.262 228.479C312.017 229.055 311.495 229.625 311.863 230.354C316.365 230.836 317.302 230.216 318.5 226.001C318.601 225.647 318.724 225.297 318.865 224.958C321.221 219.283 322.911 213.386 324.424 207.427C326.503 199.244 327.947 190.907 328.507 182.51C329.158 172.749 329.286 162.928 328.17 153.153C327.173 144.409 325.736 135.762 323.302 127.296C321.025 119.379 318.384 111.626 314.892 104.17C312.197 98.4145 309.303 92.804 305.962 87.404C301.601 80.3568 296.671 73.7978 291.155 67.6856C284.172 59.9464 276.839 52.5898 268.379 46.5399C258.908 39.7666 248.899 34.0343 238.101 29.7142C228.392 25.83 218.474 22.8898 208.176 21.319C204.09 20.6958 199.99 19.8122 195.885 19.7435C187.855 19.609 179.801 19.1609 171.782 20.1142C166.785 20.7084 161.804 21.3912 156.864 22.441C152.986 23.2652 149.175 24.3181 145.364 25.3839C140.332 26.791 135.457 28.6904 130.641 30.7166C125.992 32.6722 121.546 35.0845 117.109 37.5098C111.536 40.5564 106.389 44.2695 101.24 47.9856C97.4061 50.7533 93.8998 53.9225 90.446 57.1752C84.287 62.9755 78.5438 69.159 73.2167 76.109Z" fill="#236F41"/>
<path d="M86.7219 191.621C87.4946 183.677 88.2581 175.899 89.0248 168.123C89.5802 162.49 90.1435 156.858 90.6965 151.224C91.3275 144.796 91.923 138.364 92.5921 131.94C92.849 129.474 94.1328 128.367 96.5665 128.361C103.893 128.343 111.22 128.339 118.547 128.351C120.942 128.355 121.898 129.086 122.592 131.458C128.131 150.397 133.656 169.34 139.194 188.278C139.426 189.072 139.479 189.968 140.218 190.654C141.092 189.928 141.198 188.909 141.462 188.014C147.002 169.269 152.519 150.517 158.045 131.768C158.835 129.09 159.752 128.37 162.443 128.365C169.59 128.353 176.737 128.352 183.884 128.363C186.541 128.367 187.873 129.57 188.143 132.319C189.04 141.447 189.866 150.583 190.778 159.709C191.64 168.342 192.605 176.964 193.472 185.597C194.283 193.678 195.012 201.767 195.805 209.85C196.31 214.993 196.796 220.139 197.423 225.267C197.836 228.641 196.914 229.914 193.655 229.917C187.83 229.924 182.004 229.921 176.179 229.914C173.293 229.911 172.42 229.153 172.097 226.222C170.884 215.212 169.712 204.197 168.498 193.187C167.965 188.357 167.373 183.534 166.799 178.708C166.757 178.356 166.795 177.948 166.366 177.71C165.664 177.754 165.665 178.385 165.525 178.884C161.94 191.605 158.357 204.327 154.777 217.049C153.895 220.185 153.029 223.326 152.143 226.46C151.43 228.982 150.245 229.911 147.746 229.914C142.762 229.92 137.777 229.922 132.792 229.912C130.349 229.907 129.442 229.292 128.743 226.848C125.162 214.316 121.621 201.771 118.071 189.229C117.083 185.739 116.121 182.241 115.123 178.754C114.994 178.303 114.938 177.774 114.298 177.384C113.557 179.37 113.512 181.435 113.284 183.44C112.323 191.877 111.425 200.321 110.508 208.764C109.863 214.698 109.235 220.634 108.58 226.567C108.309 229.02 107.376 229.892 104.919 229.902C98.7938 229.927 92.6679 229.925 86.5422 229.896C84.1662 229.884 82.9649 228.589 83.2066 226.135C84.0691 217.378 85.0087 208.629 85.9125 199.876C86.1907 197.181 86.4475 194.485 86.7219 191.621Z" fill="#236F41"/>
<path d="M269.667 220.417C257.713 221.405 248.122 216.859 240.493 207.855C233.064 199.088 229.64 188.693 229.401 177.133C229.145 164.775 232.455 153.621 240.246 144.082C252.058 129.618 271.817 126.657 286.504 138.359C288.67 140.085 288.99 141.316 287.624 143.721C285.205 147.981 282.744 152.216 280.261 156.437C279.129 158.363 278.294 158.557 276.667 157.19C268.021 149.922 256.581 152.732 251.582 162.436C246.652 172.007 246.773 181.706 252.585 190.858C258.032 199.436 268.154 200.993 276.169 194.88C278.767 192.9 279.124 192.955 280.833 195.859C283.161 199.815 285.473 203.783 287.75 207.771C289.304 210.491 289.028 211.589 286.488 213.502C281.505 217.254 276.015 219.713 269.667 220.417Z" fill="#236F41"/>
<path d="M206.753 190.98C206.751 181.18 206.748 171.564 206.747 161.948C206.747 161.087 206.744 160.237 207.006 159.389C207.52 157.719 208.531 156.802 210.286 156.808C213.767 156.82 217.247 156.806 220.728 156.81C224.388 156.814 225.918 158.424 225.917 162.25C225.916 169.585 225.913 176.92 225.917 184.255C225.923 193.747 225.936 203.239 225.943 212.732C225.944 213.41 225.954 214.09 225.906 214.765C225.687 217.92 224.416 219.154 221.318 219.18C218.137 219.207 214.956 219.198 211.776 219.195C207.758 219.19 206.744 218.158 206.745 214.095C206.748 206.452 206.751 198.809 206.753 190.98Z" fill="#236F41"/>
<path d="M215.578 114.656C225.98 114.623 233.523 121.846 234.251 132.369C234.889 141.585 226.524 150.469 217.486 150.856C208.161 151.255 200.958 144.329 199.352 136.86C197.134 126.541 203.659 116.532 213.825 114.97C214.357 114.888 214.884 114.767 215.578 114.656Z" fill="#236F41"/>
<path d="M248.643 224.188C260.351 224.189 271.88 224.19 283.408 224.192C285.609 224.193 286.436 225.516 285.611 227.646C285.366 228.28 284.921 228.447 284.345 228.45C283.384 228.456 282.424 228.449 281.463 228.449C256.185 228.449 230.906 228.441 205.628 228.472C204.1 228.473 203.138 228.32 203.155 226.333C203.17 224.559 203.834 224.159 205.411 224.164C219.341 224.208 233.271 224.188 247.201 224.187C247.622 224.187 248.042 224.188 248.643 224.188Z" fill="#236F41"/>
<path d="M79.8874 311.883C78.5819 313.891 77.3285 315.774 76.1288 317.693C75.4929 318.71 74.8747 318.95 73.7841 318.24C70.7552 316.266 70.6959 316.291 72.6924 313.208C78.2437 304.637 83.8385 296.095 89.3739 287.513C90.1235 286.351 90.7816 286.253 91.8313 287.069C93.0256 287.997 94.2792 288.863 95.5801 289.623C96.7686 290.318 96.9201 291.06 96.342 292.327C93.8976 297.682 91.5445 303.082 89.1643 308.468C88.7945 309.305 88.4569 310.157 87.957 311.355C89.0361 310.893 89.5007 310.201 90.0228 309.616C93.9973 305.164 97.9837 300.722 101.907 296.223C102.789 295.211 103.503 294.944 104.621 295.828C105.902 296.842 107.279 297.732 108.648 298.621C109.568 299.219 109.622 299.806 109.016 300.733C103.093 309.789 97.1952 318.864 91.3154 327.951C90.5609 329.117 89.8778 329.284 88.69 328.458C85.5518 326.277 85.5172 326.335 87.6499 323.048C90.5405 318.593 93.4274 314.137 96.1325 309.515C94.484 311.326 92.8252 313.127 91.1894 314.95C88.7085 317.714 86.2117 320.464 83.7909 323.283C83.0249 324.175 82.441 324.191 81.5222 323.542C77.487 320.691 77.8757 321.935 79.7809 317.534C81.7797 312.917 83.7852 308.302 85.7832 303.684C85.8267 303.584 85.8144 303.458 85.6067 303.187C83.725 306.049 81.8434 308.911 79.8874 311.883Z" fill="#236F41"/>
<path d="M247.63 305.237C246.544 302.913 246.544 302.913 248.633 301.827C253.042 299.535 253.021 299.553 256.287 303.391C259.344 306.983 262.45 310.532 265.747 313.947C263.375 309.053 261.051 304.134 258.601 299.282C257.814 297.722 257.996 296.961 259.625 296.234C262.53 294.938 262.491 294.832 263.886 297.713C268.35 306.93 272.781 316.163 277.298 325.352C278.011 326.802 277.826 327.53 276.374 328.167C271.819 330.164 273.46 330.681 270.122 326.93C266.234 322.563 262.449 318.1 258.63 313.668C258.356 313.349 258.175 312.947 257.753 312.746C258.21 315.048 259.37 316.956 260.315 318.956C262.226 323.003 264.15 327.045 266.166 331.037C266.84 332.371 266.719 333.067 265.33 333.736C261.63 335.517 262.372 335.637 260.692 332.179C256.351 323.244 252.025 314.3 247.63 305.237Z" fill="#236F41"/>
<path d="M235.069 338.227C235.477 339.929 235.861 341.479 236.219 343.036C236.314 343.447 236.524 344.08 236.343 344.268C235.083 345.58 233.263 345.381 231.709 345.929C230.746 346.269 230.458 345.462 230.11 344.833C227.711 340.493 225.321 336.148 222.933 331.802C221.789 329.72 220.655 327.633 219.172 325.676C220.077 329.387 220.976 333.099 221.889 336.808C222.652 339.908 223.411 343.01 224.215 346.099C224.548 347.378 224.197 348.037 222.883 348.298C218.935 349.082 219.588 349.826 218.571 345.678C216.141 335.772 213.714 325.864 211.223 315.973C210.872 314.579 211.105 314.026 212.539 313.675C217.835 312.376 217.822 312.32 220.496 317.239C222.133 320.25 223.765 323.265 225.416 326.268C225.786 326.941 226.226 327.574 226.766 328.16C226.409 324.766 225.394 321.558 224.646 318.29C224.207 316.372 223.772 314.451 223.239 312.56C222.906 311.379 223.323 310.92 224.393 310.585C227.937 309.476 228.02 309.528 228.912 313.195C230.93 321.495 232.992 329.784 235.069 338.227Z" fill="#236F41"/>
<path d="M146.814 341.733C146.329 344.539 145.312 347.071 145.291 349.957C143.486 349.799 141.908 349.236 140.318 348.777C139.459 348.529 139.619 347.724 139.678 347.063C139.909 344.473 140.718 342.007 141.275 339.488C141.504 338.455 141.626 337.428 141.618 336.376C141.609 335.198 141.061 334.414 140.017 333.936C138.235 333.12 137.535 333.461 137.086 335.395C136.321 338.69 135.482 341.969 134.805 345.284C134.462 346.963 133.733 347.355 132.168 346.876C127.894 345.567 128.356 346.593 129.353 342.291C131.632 332.468 134.073 322.686 136.358 312.865C136.749 311.18 137.384 310.784 138.964 311.286C141.138 311.976 143.386 312.414 145.584 313.027C150.571 314.415 152.45 317.597 151.302 322.751C150.875 324.668 150.482 326.601 149.684 328.417C148.961 330.061 147.642 331.096 146.17 332.109C148.115 335.186 147.778 338.365 146.814 341.733ZM145.472 321.395C145.442 320.847 145.531 320.256 145.361 319.758C144.834 318.209 143.424 318.13 142.138 317.877C141.421 317.736 141.179 318.208 141.042 318.786C140.436 321.345 139.837 323.905 139.239 326.465C139.033 327.348 139.412 327.83 140.225 328.116C142.21 328.816 143.678 328.19 144.341 326.146C144.811 324.699 145.089 323.187 145.472 321.395Z" fill="#236F41"/>
<path d="M151.963 345.899C151.792 339.794 153.069 333.996 153.602 328.125C153.779 326.173 153.988 324.206 154.414 322.3C155.538 317.274 158.967 315.159 164.346 316.025C168.74 316.732 171.416 320.06 170.983 324.797C170.345 331.769 169.563 338.733 168.64 345.671C168.069 349.956 165.038 352.552 161.051 352.661C156.123 352.795 153.132 350.621 151.963 345.899ZM162.69 321.4C160.971 321.439 160.262 322.526 160.069 324.108C159.591 328.018 159.127 331.929 158.662 335.841C158.327 338.651 157.863 341.448 157.849 344.29C157.842 345.763 158.387 346.819 159.938 347.023C161.397 347.216 162.528 346.342 162.757 344.587C163.634 337.881 164.474 331.168 165.222 324.446C165.395 322.892 164.642 321.695 162.69 321.4Z" fill="#236F41"/>
<path d="M195.559 330.883C195.587 326.629 195.657 322.56 195.619 318.491C195.606 317.024 196.144 316.355 197.561 316.225C199.05 316.089 200.549 315.903 202.003 315.557C203.474 315.206 204.153 315.651 204.589 317.162C206.004 322.063 207.557 326.922 209.055 331.798C210.715 337.202 212.379 342.605 214.025 348.013C214.654 350.078 214.511 350.276 212.385 350.588C208.801 351.114 208.801 351.114 207.682 347.467C206.864 344.802 206.874 344.869 204.169 345.277C200.344 345.853 200.824 345.467 200.745 349.297C200.724 350.305 201.166 351.661 200.123 352.197C198.859 352.847 197.348 352.955 195.909 352.902C195.2 352.875 195.233 352.136 195.238 351.59C195.286 346.843 195.341 342.097 195.41 337.35C195.441 335.256 195.508 333.162 195.559 330.883ZM202.701 340.063C203.51 339.925 204.371 339.965 205.192 339.267C203.84 334.625 202.481 329.957 201.122 325.289C200.789 329.852 200.823 334.341 200.769 338.829C200.753 340.189 201.317 340.432 202.701 340.063Z" fill="#236F41"/>
<path d="M178.018 352.658C176.702 343.235 175.428 333.97 174.161 324.704C173.894 322.754 173.684 320.796 173.394 318.85C173.254 317.913 173.513 317.413 174.482 317.426C174.542 317.427 174.602 317.419 174.662 317.421C179.919 317.55 179.001 316.6 179.695 321.488C180.706 328.611 181.539 335.761 182.456 342.898C182.499 343.238 182.373 343.654 182.925 343.962C183.899 337.85 184.861 331.801 185.828 325.752C186.187 323.505 186.598 321.266 186.902 319.011C187.044 317.959 187.493 317.55 188.527 317.49C192.559 317.26 192.586 317.237 191.845 321.865C190.29 331.582 188.713 341.296 187.122 351.007C186.696 353.605 186.658 353.601 184.053 353.596C182.612 353.594 181.171 353.593 179.73 353.575C179.076 353.567 178.372 353.636 178.018 352.658Z" fill="#236F41"/>
<path d="M275.518 300.33C278.242 304.479 280.887 308.522 283.557 312.547C283.992 313.204 284.471 313.864 285.05 314.379C286.063 315.277 287.166 315.122 288.177 314.321C289.153 313.549 289.426 312.597 288.857 311.391C288.144 309.879 287.148 308.565 286.218 307.205C285.661 306.389 285.722 305.861 286.522 305.21C289.95 302.421 289.936 302.396 292.392 306.111C292.661 306.518 292.917 306.937 293.164 307.359C296.627 313.277 294.157 319.335 287.595 320.865C284.19 321.658 281.613 320.093 279.627 317.407C278.214 315.495 276.953 313.462 275.646 311.468C273.233 307.785 270.774 304.132 268.452 300.389C266.616 297.429 266.033 294.195 268.189 291.201C270.324 288.236 273.229 286.412 277.045 287.069C279.658 287.52 281.383 289.334 282.786 291.489C285.137 295.099 285.084 294.232 281.948 296.573C280.564 297.606 279.684 297.585 278.856 295.971C278.414 295.11 277.82 294.297 277.159 293.596C276.198 292.578 275.051 292.493 273.911 293.353C272.833 294.166 272.557 295.257 273.184 296.446C273.867 297.743 274.687 298.964 275.518 300.33Z" fill="#236F41"/>
<path d="M130.831 321.526C129.036 321.866 127.699 320.798 126.234 320.194C125.569 319.92 125.782 319.298 125.971 318.753C126.354 317.652 126.805 316.567 127.076 315.436C127.432 313.951 127.062 312.719 125.477 312.213C123.944 311.723 122.861 312.356 122.294 313.813C120.692 317.933 119.137 322.072 117.582 326.211C116.784 328.336 115.961 330.456 115.267 332.618C114.653 334.53 115.178 335.655 116.726 336.204C118.176 336.717 119.252 336.179 119.996 334.468C120.533 333.231 121.033 331.97 121.446 330.685C121.821 329.517 122.408 329.357 123.48 329.793C128.149 331.693 127.325 330.85 125.865 335.047C125.703 335.51 125.514 335.965 125.319 336.415C122.593 342.693 116.656 344.104 111.493 339.656C108.848 337.378 108.482 334.336 109.488 331.224C110.923 326.784 112.643 322.44 114.277 318.068C115.18 315.653 116.051 313.215 117.121 310.877C118.798 307.21 121.779 305.734 125.707 306.411C129.608 307.084 132.58 310.002 132.878 313.637C133.108 316.438 131.937 318.924 130.831 321.526Z" fill="#236F41"/>
<path d="M249.093 334.464C245.718 325.56 242.427 316.776 239.042 308.03C238.418 306.418 238.637 305.727 240.292 305.058C244.405 303.396 243.655 303.468 245.107 307.244C248.735 316.685 252.276 326.162 255.918 335.597C256.432 336.927 256.296 337.529 254.925 338.058C251.068 339.547 251.089 339.607 249.522 335.634C249.387 335.292 249.27 334.943 249.093 334.464Z" fill="#236F41"/>
<path d="M109.051 306.695C109.913 304.919 110.761 303.289 111.516 301.614C112.012 300.514 112.64 300.373 113.648 300.915C118.319 303.429 117.747 302.327 115.611 306.767C111.339 315.65 106.941 324.47 102.679 333.359C101.942 334.896 101.266 335.113 99.8165 334.317C96.5048 332.498 96.4105 332.537 98.0823 329.086C101.686 321.647 105.355 314.241 109.051 306.695Z" fill="#236F41"/>
<path d="M298.76 305.578C299.135 305.187 299.436 304.886 299.76 304.615C302.891 301.999 303.571 302.138 305.717 305.822C305.748 305.874 305.784 305.924 305.818 305.974C306.278 306.65 306.003 307.207 305.42 307.519C304.101 308.225 303.256 310.621 301.725 309.773C300.408 309.043 298.977 307.612 298.76 305.578Z" fill="#236F41"/>
</svg>
